<mxfile host="65bd71144e" modified="2021-10-28T05:10:11.017Z" agent="5.0 (Windows NT 10.0; Win64; x64) AppleWebKit/537.36 (KHTML, like Gecko) Code/1.61.2 Chrome/91.0.4472.164 Electron/13.5.1 Safari/537.36" etag="CTUV9AcfO92i49XfzvqW" version="15.6.1" type="embed" pages="3">
    <diagram id="Sjt3ZE-SFFI1AHADIlB5" name="商品情報管理">
        <mxGraphModel dx="1919" dy="860" grid="1" gridSize="10" guides="1" tooltips="1" connect="1" arrows="1" fold="1" page="1" pageScale="1" pageWidth="827" pageHeight="1169" math="0" shadow="0">
            <root>
                <mxCell id="0"/>
                <mxCell id="1" parent="0"/>
                <mxCell id="34" value="管理者" style="shape=umlActor;verticalLabelPosition=bottom;verticalAlign=top;html=1;" parent="1" vertex="1">
                    <mxGeometry x="-70" y="280" width="30" height="60" as="geometry"/>
                </mxCell>
                <mxCell id="35" value="ログイン済&lt;br&gt;ホーム画面" style="shape=umlBoundary;whiteSpace=wrap;html=1;fillColor=#dae8fc;strokeColor=#6c8ebf;" parent="1" vertex="1">
                    <mxGeometry x="120" y="40" width="100" height="80" as="geometry"/>
                </mxCell>
                <mxCell id="36" value="商品情報&lt;br&gt;一覧画面" style="shape=umlBoundary;whiteSpace=wrap;html=1;fillColor=#dae8fc;strokeColor=#6c8ebf;" parent="1" vertex="1">
                    <mxGeometry x="120" y="160" width="100" height="80" as="geometry"/>
                </mxCell>
                <mxCell id="37" value="商品情報&lt;br&gt;新規登録&lt;br&gt;画面" style="shape=umlBoundary;whiteSpace=wrap;html=1;fillColor=#dae8fc;strokeColor=#6c8ebf;" parent="1" vertex="1">
                    <mxGeometry x="120" y="280" width="100" height="80" as="geometry"/>
                </mxCell>
                <mxCell id="38" value="商品情報&lt;br&gt;を取得する" style="ellipse;shape=umlControl;whiteSpace=wrap;html=1;fillColor=#f8cecc;strokeColor=#b85450;" parent="1" vertex="1">
                    <mxGeometry x="420" y="40" width="70" height="80" as="geometry"/>
                </mxCell>
                <mxCell id="39" value="商品情報" style="ellipse;shape=umlEntity;whiteSpace=wrap;html=1;fillColor=#d5e8d4;strokeColor=#82b366;" parent="1" vertex="1">
                    <mxGeometry x="720" y="200" width="80" height="80" as="geometry"/>
                </mxCell>
                <mxCell id="40" value="表示する" style="ellipse;shape=umlControl;whiteSpace=wrap;html=1;fillColor=#f8cecc;strokeColor=#b85450;" parent="1" vertex="1">
                    <mxGeometry x="420" y="160" width="70" height="80" as="geometry"/>
                </mxCell>
                <mxCell id="41" value="登録する" style="ellipse;shape=umlControl;whiteSpace=wrap;html=1;fillColor=#f8cecc;strokeColor=#b85450;" parent="1" vertex="1">
                    <mxGeometry x="520" y="280" width="70" height="80" as="geometry"/>
                </mxCell>
                <mxCell id="42" value="商品情報&lt;br&gt;詳細画面" style="shape=umlBoundary;whiteSpace=wrap;html=1;fillColor=#dae8fc;strokeColor=#6c8ebf;" parent="1" vertex="1">
                    <mxGeometry x="120" y="400" width="100" height="80" as="geometry"/>
                </mxCell>
                <mxCell id="43" value="更新する" style="ellipse;shape=umlControl;whiteSpace=wrap;html=1;fillColor=#f8cecc;strokeColor=#b85450;" parent="1" vertex="1">
                    <mxGeometry x="520" y="520" width="70" height="80" as="geometry"/>
                </mxCell>
                <mxCell id="44" value="" style="endArrow=classic;html=1;rounded=0;" parent="1" edge="1">
                    <mxGeometry width="50" height="50" relative="1" as="geometry">
                        <mxPoint x="240" y="80" as="sourcePoint"/>
                        <mxPoint x="400" y="80" as="targetPoint"/>
                    </mxGeometry>
                </mxCell>
                <mxCell id="45" value="" style="endArrow=classic;html=1;rounded=0;" parent="1" edge="1">
                    <mxGeometry width="50" height="50" relative="1" as="geometry">
                        <mxPoint x="410" y="230" as="sourcePoint"/>
                        <mxPoint x="240" y="310" as="targetPoint"/>
                    </mxGeometry>
                </mxCell>
                <mxCell id="46" value="商品情報&lt;br&gt;編集画面" style="shape=umlBoundary;whiteSpace=wrap;html=1;fillColor=#dae8fc;strokeColor=#6c8ebf;" parent="1" vertex="1">
                    <mxGeometry x="120" y="520" width="100" height="80" as="geometry"/>
                </mxCell>
                <mxCell id="47" value="「商品情報マスタ」&lt;br&gt;を押下" style="text;html=1;strokeColor=none;fillColor=none;align=center;verticalAlign=middle;whiteSpace=wrap;rounded=0;" parent="1" vertex="1">
                    <mxGeometry x="270" y="50" width="110" height="30" as="geometry"/>
                </mxCell>
                <mxCell id="48" value="" style="endArrow=classic;html=1;rounded=0;" parent="1" edge="1">
                    <mxGeometry width="50" height="50" relative="1" as="geometry">
                        <mxPoint x="-30" y="320" as="sourcePoint"/>
                        <mxPoint x="110" y="80" as="targetPoint"/>
                    </mxGeometry>
                </mxCell>
                <mxCell id="49" value="" style="endArrow=classic;html=1;rounded=0;" parent="1" edge="1">
                    <mxGeometry width="50" height="50" relative="1" as="geometry">
                        <mxPoint x="-30" y="320" as="sourcePoint"/>
                        <mxPoint x="100" y="320" as="targetPoint"/>
                    </mxGeometry>
                </mxCell>
                <mxCell id="50" value="" style="endArrow=classic;html=1;rounded=0;" parent="1" edge="1">
                    <mxGeometry width="50" height="50" relative="1" as="geometry">
                        <mxPoint x="-30" y="320" as="sourcePoint"/>
                        <mxPoint x="110" y="440" as="targetPoint"/>
                    </mxGeometry>
                </mxCell>
                <mxCell id="51" value="" style="endArrow=classic;html=1;rounded=0;" parent="1" edge="1">
                    <mxGeometry width="50" height="50" relative="1" as="geometry">
                        <mxPoint x="-30" y="320" as="sourcePoint"/>
                        <mxPoint x="110" y="560" as="targetPoint"/>
                    </mxGeometry>
                </mxCell>
                <mxCell id="52" value="" style="endArrow=classic;html=1;rounded=0;" parent="1" edge="1">
                    <mxGeometry width="50" height="50" relative="1" as="geometry">
                        <mxPoint x="-30" y="320" as="sourcePoint"/>
                        <mxPoint x="110" y="200" as="targetPoint"/>
                    </mxGeometry>
                </mxCell>
                <mxCell id="53" value="" style="endArrow=classic;startArrow=classic;html=1;rounded=0;" parent="1" edge="1">
                    <mxGeometry width="50" height="50" relative="1" as="geometry">
                        <mxPoint x="240" y="200" as="sourcePoint"/>
                        <mxPoint x="400" y="200" as="targetPoint"/>
                    </mxGeometry>
                </mxCell>
                <mxCell id="58" value="入力データを検証する" style="ellipse;shape=umlControl;whiteSpace=wrap;html=1;fillColor=#f8cecc;strokeColor=#b85450;" parent="1" vertex="1">
                    <mxGeometry x="420" y="400" width="70" height="80" as="geometry"/>
                </mxCell>
                <mxCell id="59" value="削除する" style="ellipse;shape=umlControl;whiteSpace=wrap;html=1;fillColor=#f8cecc;strokeColor=#b85450;" parent="1" vertex="1">
                    <mxGeometry x="520" y="640" width="70" height="80" as="geometry"/>
                </mxCell>
                <mxCell id="60" value="" style="endArrow=classic;html=1;rounded=0;" parent="1" edge="1">
                    <mxGeometry width="50" height="50" relative="1" as="geometry">
                        <mxPoint x="480" y="410" as="sourcePoint"/>
                        <mxPoint x="520" y="360" as="targetPoint"/>
                    </mxGeometry>
                </mxCell>
                <mxCell id="61" value="" style="endArrow=classic;html=1;rounded=0;entryX=0;entryY=0.75;entryDx=0;entryDy=0;entryPerimeter=0;" parent="1" target="58" edge="1">
                    <mxGeometry width="50" height="50" relative="1" as="geometry">
                        <mxPoint x="240" y="560" as="sourcePoint"/>
                        <mxPoint x="410" y="440" as="targetPoint"/>
                    </mxGeometry>
                </mxCell>
                <mxCell id="62" value="" style="endArrow=classic;html=1;rounded=0;" parent="1" target="43" edge="1">
                    <mxGeometry width="50" height="50" relative="1" as="geometry">
                        <mxPoint x="490" y="480" as="sourcePoint"/>
                        <mxPoint x="550" y="380" as="targetPoint"/>
                    </mxGeometry>
                </mxCell>
                <mxCell id="63" value="" style="endArrow=classic;html=1;rounded=0;" parent="1" edge="1">
                    <mxGeometry width="50" height="50" relative="1" as="geometry">
                        <mxPoint x="600" y="310" as="sourcePoint"/>
                        <mxPoint x="710" y="240" as="targetPoint"/>
                    </mxGeometry>
                </mxCell>
                <mxCell id="64" value="" style="endArrow=classic;html=1;rounded=0;" parent="1" source="43" edge="1">
                    <mxGeometry width="50" height="50" relative="1" as="geometry">
                        <mxPoint x="600" y="560" as="sourcePoint"/>
                        <mxPoint x="720" y="290" as="targetPoint"/>
                    </mxGeometry>
                </mxCell>
                <mxCell id="65" value="" style="endArrow=classic;html=1;rounded=0;" parent="1" edge="1">
                    <mxGeometry width="50" height="50" relative="1" as="geometry">
                        <mxPoint x="600" y="680" as="sourcePoint"/>
                        <mxPoint x="760" y="290" as="targetPoint"/>
                    </mxGeometry>
                </mxCell>
                <mxCell id="66" value="" style="endArrow=classic;html=1;rounded=0;" parent="1" edge="1">
                    <mxGeometry width="50" height="50" relative="1" as="geometry">
                        <mxPoint x="500" y="90" as="sourcePoint"/>
                        <mxPoint x="720" y="210" as="targetPoint"/>
                    </mxGeometry>
                </mxCell>
                <mxCell id="67" value="" style="endArrow=classic;html=1;rounded=0;jumpStyle=none;" parent="1" edge="1">
                    <mxGeometry width="50" height="50" relative="1" as="geometry">
                        <mxPoint x="440" y="250" as="sourcePoint"/>
                        <mxPoint x="240" y="550" as="targetPoint"/>
                    </mxGeometry>
                </mxCell>
                <mxCell id="68" value="" style="endArrow=classic;startArrow=classic;html=1;rounded=0;jumpStyle=none;" parent="1" edge="1">
                    <mxGeometry width="50" height="50" relative="1" as="geometry">
                        <mxPoint x="230" y="440" as="sourcePoint"/>
                        <mxPoint x="420" y="250" as="targetPoint"/>
                    </mxGeometry>
                </mxCell>
                <mxCell id="69" value="" style="endArrow=classic;html=1;rounded=0;jumpStyle=arc;" parent="1" source="58" edge="1">
                    <mxGeometry width="50" height="50" relative="1" as="geometry">
                        <mxPoint x="450" y="260" as="sourcePoint"/>
                        <mxPoint x="240" y="210" as="targetPoint"/>
                    </mxGeometry>
                </mxCell>
                <mxCell id="71" value="" style="endArrow=classic;html=1;rounded=0;" parent="1" edge="1">
                    <mxGeometry width="50" height="50" relative="1" as="geometry">
                        <mxPoint x="710" y="230" as="sourcePoint"/>
                        <mxPoint x="500" y="200" as="targetPoint"/>
                    </mxGeometry>
                </mxCell>
                <mxCell id="72" value="" style="endArrow=classic;html=1;rounded=0;jumpStyle=arc;startArrow=classic;startFill=1;" parent="1" target="58" edge="1">
                    <mxGeometry width="50" height="50" relative="1" as="geometry">
                        <mxPoint x="240" y="320" as="sourcePoint"/>
                        <mxPoint x="460" y="320" as="targetPoint"/>
                    </mxGeometry>
                </mxCell>
                <mxCell id="73" value="" style="endArrow=classic;html=1;rounded=0;jumpStyle=arc;" parent="1" edge="1">
                    <mxGeometry width="50" height="50" relative="1" as="geometry">
                        <mxPoint x="230" y="450" as="sourcePoint"/>
                        <mxPoint x="510" y="680" as="targetPoint"/>
                    </mxGeometry>
                </mxCell>
            </root>
        </mxGraphModel>
    </diagram>
    <diagram id="833zbM6ukXLLUMzZ-yON" name="ベンチマークマスタ管理">
        <mxGraphModel dx="1737" dy="717" grid="1" gridSize="10" guides="1" tooltips="1" connect="1" arrows="1" fold="1" page="1" pageScale="1" pageWidth="827" pageHeight="1169" math="0" shadow="0">
            <root>
                <mxCell id="vt_Iw-wpivOB3l-9KgBU-0"/>
                <mxCell id="vt_Iw-wpivOB3l-9KgBU-1" parent="vt_Iw-wpivOB3l-9KgBU-0"/>
                <mxCell id="umbCUqlV6Kv5ittQlC07-0" value="管理者&lt;br&gt;正規社員" style="shape=umlActor;verticalLabelPosition=bottom;verticalAlign=top;html=1;" vertex="1" parent="vt_Iw-wpivOB3l-9KgBU-1">
                    <mxGeometry x="-70" y="280" width="30" height="60" as="geometry"/>
                </mxCell>
                <mxCell id="umbCUqlV6Kv5ittQlC07-1" value="ログイン済&lt;br&gt;ホーム画面" style="shape=umlBoundary;whiteSpace=wrap;html=1;fillColor=#dae8fc;strokeColor=#6c8ebf;" vertex="1" parent="vt_Iw-wpivOB3l-9KgBU-1">
                    <mxGeometry x="120" y="40" width="100" height="80" as="geometry"/>
                </mxCell>
                <mxCell id="umbCUqlV6Kv5ittQlC07-2" value="ベンチマーク&lt;br&gt;情報一覧画面" style="shape=umlBoundary;whiteSpace=wrap;html=1;fillColor=#dae8fc;strokeColor=#6c8ebf;" vertex="1" parent="vt_Iw-wpivOB3l-9KgBU-1">
                    <mxGeometry x="120" y="160" width="100" height="80" as="geometry"/>
                </mxCell>
                <mxCell id="umbCUqlV6Kv5ittQlC07-3" value="新規登録&lt;br&gt;画面" style="shape=umlBoundary;whiteSpace=wrap;html=1;fillColor=#dae8fc;strokeColor=#6c8ebf;" vertex="1" parent="vt_Iw-wpivOB3l-9KgBU-1">
                    <mxGeometry x="120" y="280" width="100" height="80" as="geometry"/>
                </mxCell>
                <mxCell id="umbCUqlV6Kv5ittQlC07-4" value="商品情報&lt;br&gt;を取得する" style="ellipse;shape=umlControl;whiteSpace=wrap;html=1;fillColor=#f8cecc;strokeColor=#b85450;" vertex="1" parent="vt_Iw-wpivOB3l-9KgBU-1">
                    <mxGeometry x="420" y="40" width="70" height="80" as="geometry"/>
                </mxCell>
                <mxCell id="umbCUqlV6Kv5ittQlC07-5" value="商品情報" style="ellipse;shape=umlEntity;whiteSpace=wrap;html=1;fillColor=#d5e8d4;strokeColor=#82b366;" vertex="1" parent="vt_Iw-wpivOB3l-9KgBU-1">
                    <mxGeometry x="720" y="200" width="80" height="80" as="geometry"/>
                </mxCell>
                <mxCell id="umbCUqlV6Kv5ittQlC07-6" value="表示する" style="ellipse;shape=umlControl;whiteSpace=wrap;html=1;fillColor=#f8cecc;strokeColor=#b85450;" vertex="1" parent="vt_Iw-wpivOB3l-9KgBU-1">
                    <mxGeometry x="420" y="160" width="70" height="80" as="geometry"/>
                </mxCell>
                <mxCell id="umbCUqlV6Kv5ittQlC07-7" value="登録する" style="ellipse;shape=umlControl;whiteSpace=wrap;html=1;fillColor=#f8cecc;strokeColor=#b85450;" vertex="1" parent="vt_Iw-wpivOB3l-9KgBU-1">
                    <mxGeometry x="520" y="280" width="70" height="80" as="geometry"/>
                </mxCell>
                <mxCell id="umbCUqlV6Kv5ittQlC07-8" value="詳細画面" style="shape=umlBoundary;whiteSpace=wrap;html=1;fillColor=#dae8fc;strokeColor=#6c8ebf;" vertex="1" parent="vt_Iw-wpivOB3l-9KgBU-1">
                    <mxGeometry x="120" y="400" width="100" height="80" as="geometry"/>
                </mxCell>
                <mxCell id="umbCUqlV6Kv5ittQlC07-9" value="更新する" style="ellipse;shape=umlControl;whiteSpace=wrap;html=1;fillColor=#f8cecc;strokeColor=#b85450;" vertex="1" parent="vt_Iw-wpivOB3l-9KgBU-1">
                    <mxGeometry x="520" y="520" width="70" height="80" as="geometry"/>
                </mxCell>
                <mxCell id="umbCUqlV6Kv5ittQlC07-10" value="" style="endArrow=classic;html=1;rounded=0;" edge="1" parent="vt_Iw-wpivOB3l-9KgBU-1">
                    <mxGeometry width="50" height="50" relative="1" as="geometry">
                        <mxPoint x="240" y="80" as="sourcePoint"/>
                        <mxPoint x="400" y="80" as="targetPoint"/>
                    </mxGeometry>
                </mxCell>
                <mxCell id="umbCUqlV6Kv5ittQlC07-12" value="編集画面" style="shape=umlBoundary;whiteSpace=wrap;html=1;fillColor=#dae8fc;strokeColor=#6c8ebf;" vertex="1" parent="vt_Iw-wpivOB3l-9KgBU-1">
                    <mxGeometry x="120" y="520" width="100" height="80" as="geometry"/>
                </mxCell>
                <mxCell id="umbCUqlV6Kv5ittQlC07-13" value="「ベンチマークマスタ情報」&lt;br&gt;を押下" style="text;html=1;strokeColor=none;fillColor=none;align=center;verticalAlign=middle;whiteSpace=wrap;rounded=0;" vertex="1" parent="vt_Iw-wpivOB3l-9KgBU-1">
                    <mxGeometry x="230" y="50" width="170" height="30" as="geometry"/>
                </mxCell>
                <mxCell id="umbCUqlV6Kv5ittQlC07-14" value="" style="endArrow=classic;html=1;rounded=0;" edge="1" parent="vt_Iw-wpivOB3l-9KgBU-1">
                    <mxGeometry width="50" height="50" relative="1" as="geometry">
                        <mxPoint x="-30" y="320" as="sourcePoint"/>
                        <mxPoint x="110" y="80" as="targetPoint"/>
                    </mxGeometry>
                </mxCell>
                <mxCell id="umbCUqlV6Kv5ittQlC07-15" value="" style="endArrow=classic;html=1;rounded=0;" edge="1" parent="vt_Iw-wpivOB3l-9KgBU-1">
                    <mxGeometry width="50" height="50" relative="1" as="geometry">
                        <mxPoint x="-30" y="320" as="sourcePoint"/>
                        <mxPoint x="100" y="320" as="targetPoint"/>
                    </mxGeometry>
                </mxCell>
                <mxCell id="umbCUqlV6Kv5ittQlC07-16" value="" style="endArrow=classic;html=1;rounded=0;" edge="1" parent="vt_Iw-wpivOB3l-9KgBU-1">
                    <mxGeometry width="50" height="50" relative="1" as="geometry">
                        <mxPoint x="-30" y="320" as="sourcePoint"/>
                        <mxPoint x="110" y="440" as="targetPoint"/>
                    </mxGeometry>
                </mxCell>
                <mxCell id="umbCUqlV6Kv5ittQlC07-17" value="" style="endArrow=classic;html=1;rounded=0;" edge="1" parent="vt_Iw-wpivOB3l-9KgBU-1">
                    <mxGeometry width="50" height="50" relative="1" as="geometry">
                        <mxPoint x="-30" y="320" as="sourcePoint"/>
                        <mxPoint x="110" y="560" as="targetPoint"/>
                    </mxGeometry>
                </mxCell>
                <mxCell id="umbCUqlV6Kv5ittQlC07-18" value="" style="endArrow=classic;html=1;rounded=0;" edge="1" parent="vt_Iw-wpivOB3l-9KgBU-1">
                    <mxGeometry width="50" height="50" relative="1" as="geometry">
                        <mxPoint x="-30" y="320" as="sourcePoint"/>
                        <mxPoint x="110" y="200" as="targetPoint"/>
                    </mxGeometry>
                </mxCell>
                <mxCell id="umbCUqlV6Kv5ittQlC07-20" value="入力データを検証する" style="ellipse;shape=umlControl;whiteSpace=wrap;html=1;fillColor=#f8cecc;strokeColor=#b85450;" vertex="1" parent="vt_Iw-wpivOB3l-9KgBU-1">
                    <mxGeometry x="420" y="400" width="70" height="80" as="geometry"/>
                </mxCell>
                <mxCell id="umbCUqlV6Kv5ittQlC07-21" value="削除する" style="ellipse;shape=umlControl;whiteSpace=wrap;html=1;fillColor=#f8cecc;strokeColor=#b85450;" vertex="1" parent="vt_Iw-wpivOB3l-9KgBU-1">
                    <mxGeometry x="520" y="640" width="70" height="80" as="geometry"/>
                </mxCell>
                <mxCell id="umbCUqlV6Kv5ittQlC07-28" value="" style="endArrow=classic;html=1;rounded=0;" edge="1" parent="vt_Iw-wpivOB3l-9KgBU-1">
                    <mxGeometry width="50" height="50" relative="1" as="geometry">
                        <mxPoint x="500" y="90" as="sourcePoint"/>
                        <mxPoint x="720" y="210" as="targetPoint"/>
                    </mxGeometry>
                </mxCell>
                <mxCell id="umbCUqlV6Kv5ittQlC07-35" value="" style="endArrow=classic;html=1;rounded=0;" edge="1" parent="vt_Iw-wpivOB3l-9KgBU-1">
                    <mxGeometry width="50" height="50" relative="1" as="geometry">
                        <mxPoint x="710" y="220" as="sourcePoint"/>
                        <mxPoint x="500" y="200" as="targetPoint"/>
                    </mxGeometry>
                </mxCell>
                <mxCell id="umbCUqlV6Kv5ittQlC07-36" value="" style="endArrow=classic;html=1;rounded=0;startArrow=classic;startFill=1;" edge="1" parent="vt_Iw-wpivOB3l-9KgBU-1">
                    <mxGeometry width="50" height="50" relative="1" as="geometry">
                        <mxPoint x="410" y="200" as="sourcePoint"/>
                        <mxPoint x="240" y="199.9999999999999" as="targetPoint"/>
                    </mxGeometry>
                </mxCell>
                <mxCell id="umbCUqlV6Kv5ittQlC07-37" value="" style="endArrow=classic;html=1;rounded=0;" edge="1" parent="vt_Iw-wpivOB3l-9KgBU-1">
                    <mxGeometry width="50" height="50" relative="1" as="geometry">
                        <mxPoint x="410" y="210" as="sourcePoint"/>
                        <mxPoint x="240" y="320" as="targetPoint"/>
                    </mxGeometry>
                </mxCell>
                <mxCell id="umbCUqlV6Kv5ittQlC07-39" value="" style="endArrow=classic;html=1;rounded=0;startArrow=none;startFill=0;" edge="1" parent="vt_Iw-wpivOB3l-9KgBU-1" source="umbCUqlV6Kv5ittQlC07-20">
                    <mxGeometry width="50" height="50" relative="1" as="geometry">
                        <mxPoint x="250.00000000000023" y="340" as="sourcePoint"/>
                        <mxPoint x="520" y="360" as="targetPoint"/>
                    </mxGeometry>
                </mxCell>
                <mxCell id="umbCUqlV6Kv5ittQlC07-40" value="" style="endArrow=classic;html=1;rounded=0;startArrow=none;startFill=0;" edge="1" parent="vt_Iw-wpivOB3l-9KgBU-1">
                    <mxGeometry width="50" height="50" relative="1" as="geometry">
                        <mxPoint x="600" y="310" as="sourcePoint"/>
                        <mxPoint x="710" y="230" as="targetPoint"/>
                    </mxGeometry>
                </mxCell>
                <mxCell id="umbCUqlV6Kv5ittQlC07-41" value="" style="endArrow=classic;html=1;rounded=0;startArrow=classic;startFill=1;" edge="1" parent="vt_Iw-wpivOB3l-9KgBU-1">
                    <mxGeometry width="50" height="50" relative="1" as="geometry">
                        <mxPoint x="410" y="220" as="sourcePoint"/>
                        <mxPoint x="240" y="440" as="targetPoint"/>
                    </mxGeometry>
                </mxCell>
                <mxCell id="umbCUqlV6Kv5ittQlC07-42" value="" style="endArrow=classic;html=1;rounded=0;" edge="1" parent="vt_Iw-wpivOB3l-9KgBU-1">
                    <mxGeometry width="50" height="50" relative="1" as="geometry">
                        <mxPoint x="440" y="250" as="sourcePoint"/>
                        <mxPoint x="240" y="560" as="targetPoint"/>
                    </mxGeometry>
                </mxCell>
                <mxCell id="umbCUqlV6Kv5ittQlC07-43" value="" style="endArrow=classic;html=1;rounded=0;endFill=1;startArrow=classic;startFill=1;" edge="1" parent="vt_Iw-wpivOB3l-9KgBU-1">
                    <mxGeometry width="50" height="50" relative="1" as="geometry">
                        <mxPoint x="410" y="460" as="sourcePoint"/>
                        <mxPoint x="240" y="570" as="targetPoint"/>
                    </mxGeometry>
                </mxCell>
                <mxCell id="umbCUqlV6Kv5ittQlC07-44" value="" style="endArrow=classic;html=1;rounded=0;startArrow=none;startFill=0;" edge="1" parent="vt_Iw-wpivOB3l-9KgBU-1" target="umbCUqlV6Kv5ittQlC07-9">
                    <mxGeometry width="50" height="50" relative="1" as="geometry">
                        <mxPoint x="489" y="490" as="sourcePoint"/>
                        <mxPoint x="530" y="370" as="targetPoint"/>
                    </mxGeometry>
                </mxCell>
                <mxCell id="umbCUqlV6Kv5ittQlC07-45" value="" style="endArrow=classic;html=1;rounded=0;startArrow=none;startFill=0;" edge="1" parent="vt_Iw-wpivOB3l-9KgBU-1">
                    <mxGeometry width="50" height="50" relative="1" as="geometry">
                        <mxPoint x="600" y="560" as="sourcePoint"/>
                        <mxPoint x="710" y="250" as="targetPoint"/>
                    </mxGeometry>
                </mxCell>
                <mxCell id="umbCUqlV6Kv5ittQlC07-47" value="" style="endArrow=classic;html=1;rounded=0;startArrow=none;startFill=0;" edge="1" parent="vt_Iw-wpivOB3l-9KgBU-1">
                    <mxGeometry width="50" height="50" relative="1" as="geometry">
                        <mxPoint x="600" y="680" as="sourcePoint"/>
                        <mxPoint x="760" y="290" as="targetPoint"/>
                    </mxGeometry>
                </mxCell>
                <mxCell id="umbCUqlV6Kv5ittQlC07-38" value="" style="endArrow=classic;html=1;rounded=0;startArrow=classic;startFill=1;jumpStyle=arc;" edge="1" parent="vt_Iw-wpivOB3l-9KgBU-1">
                    <mxGeometry width="50" height="50" relative="1" as="geometry">
                        <mxPoint x="240" y="330" as="sourcePoint"/>
                        <mxPoint x="410" y="450" as="targetPoint"/>
                    </mxGeometry>
                </mxCell>
                <mxCell id="umbCUqlV6Kv5ittQlC07-46" value="" style="endArrow=classic;html=1;rounded=0;jumpStyle=arc;" edge="1" parent="vt_Iw-wpivOB3l-9KgBU-1">
                    <mxGeometry width="50" height="50" relative="1" as="geometry">
                        <mxPoint x="240" y="450" as="sourcePoint"/>
                        <mxPoint x="510" y="680" as="targetPoint"/>
                    </mxGeometry>
                </mxCell>
            </root>
        </mxGraphModel>
    </diagram>
    <diagram id="OvpScdd4KDrzfWwWWDi8" name="売上情報管理">
        <mxGraphModel dx="546" dy="430" grid="1" gridSize="10" guides="1" tooltips="1" connect="1" arrows="1" fold="1" page="1" pageScale="1" pageWidth="827" pageHeight="1169" math="0" shadow="0">
            <root>
                <mxCell id="C8GtgaMKqe1gccSzZxkh-0"/>
                <mxCell id="C8GtgaMKqe1gccSzZxkh-1" parent="C8GtgaMKqe1gccSzZxkh-0"/>
            </root>
        </mxGraphModel>
    </diagram>
</mxfile>